PathFileType	4	(X/Y/Z)	C:\Users\gl24\Desktop\Patient 1 Synergy Driven Model\NMS_Pipeline_Results_NewModel\Right\TRC Data (Extra Frame)\Patient3_NormalGait_1pt2_02_Right_25.trc.trc
DataRate	CameraRate	NumFrames	NumMarkers	Units	OrigDataRate	OrigDataStartFrame	OrigNumFrames
87.500000000000	87.500000000000	4	33	mm	87.500000000000	1	       142
Frame#	Time	L.Toe			R.Toe			L.Heel			Neck			R.Shoulder			L.Shank.Lateral			R.Shank.Lateral			R.Midfoot.Lateral			L.Shoulder			R.Midfoot.Superior			R.Elbow			L.Wrist			L.Elbow			R.Heel			R.Wrist			L.Midfoot.Superior			R.Thigh.Superior			Sternum			R.Shank.Superior			R.Shank.Inferior			L.Thigh.Superior			R.Patella			L.Midfoot.Lateral			L.Shank.Inferior			L.Patella			R.Thigh.Inferior			R.Thigh.Lateral			L.Thigh.Inferior			L.Thigh.Lateral			R.Asis			L.Asis			L.Shank.Superior			Sacral			
		X1	Y1	Z1	X2	Y2	Z2	X3	Y3	Z3	X4	Y4	Z4	X5	Y5	Z5	X6	Y6	Z6	X7	Y7	Z7	X8	Y8	Z8	X9	Y9	Z9	X10	Y10	Z10	X11	Y11	Z11	X12	Y12	Z12	X13	Y13	Z13	X14	Y14	Z14	X15	Y15	Z15	X16	Y16	Z16	X17	Y17	Z17	X18	Y18	Z18	X19	Y19	Z19	X20	Y20	Z20	X21	Y21	Z21	X22	Y22	Z22	X23	Y23	Z23	X24	Y24	Z24	X25	Y25	Z25	X26	Y26	Z26	X27	Y27	Z27	X28	Y28	Z28	X29	Y29	Z29	X30	Y30	Z30	X31	Y31	Z31	X32	Y32	Z32	X33	Y33	Z33	

1	28.320000000000	731.663228275615	40.214577434768	398.468759141039	626.059080366483	43.431520605837	554.732499418752	443.695620052635	43.748173443897	456.119373891551	518.944874886283	1460.165475722402	456.761466067814	577.719818672174	1420.438697691298	621.724687986765	541.621073133085	330.863406789264	328.562768666580	647.491281206706	426.526233924279	624.384696240424	455.975503572445	171.248591136192	580.934165024550	595.761119647555	1435.461483376997	304.905044004870	563.534498897725	156.646951802658	542.119938183792	550.273733486510	1070.523727251870	716.423629598967	728.580284501332	886.206782540413	184.337636592247	578.949325909041	1098.437707242324	191.996656732522	399.871785982908	229.830352183668	515.006586650639	648.275788079285	836.003336389044	743.018431661745	615.473269625563	90.452274910220	415.323519075491	767.052105430010	752.930771603224	596.104044455001	679.051751970357	1374.917430775785	464.214077625006	742.622506617910	408.385266557029	578.803325497921	614.514506543376	287.851639309018	557.114405028912	720.480867273023	739.133297975036	332.980117560643	835.715403392275	516.330134317752	574.380871172046	517.802514484283	32.364273217575	387.578850378373	599.567536894143	230.703381109896	396.072965254904	694.191379883711	488.188914911328	374.551954059231	807.205987846513	649.149252611714	583.626336258425	698.622288918121	671.222504736591	637.901676457165	708.372318913904	609.993841594600	351.013343261136	624.102186158754	658.169198718987	296.815547974443	659.464900727096	976.015813096535	579.392921682536	669.717204135651	967.305203810953	320.195178596846	638.987793570743	379.501629910335	366.000748672197	487.701338909062	987.499106388850	450.155432129540	
2	28.331428571429	717.380183399824	39.822390779680	398.355866090274	660.811024487871	42.832585182446	553.510107259717	429.637488123098	45.522736253534	456.074176062411	518.304800487582	1460.780721042437	456.474746246832	576.553963507980	1420.715027337225	621.648215225840	528.717173741165	332.287258959289	328.579993136018	658.434499085689	423.230211757019	625.707838985522	483.508490943727	157.380448958182	582.512161181279	595.481383495421	1436.076137671607	304.850081847227	590.740462317533	150.688256542543	542.488883373922	543.121458241376	1071.378104162361	714.771963736945	737.005559586003	891.830307588354	184.806226163624	581.085173506623	1099.261216456210	190.438180923464	422.777842333425	211.901099560003	517.472399581417	634.696768492709	834.762872818012	741.830416188260	601.668613318912	90.610548850309	415.105651365383	767.523025486827	756.792680892176	594.233173716652	678.134273251890	1375.047524256326	464.219216778906	753.429104590615	411.256097373337	578.785984981687	633.202543005820	283.582501058834	557.700881836729	714.712711167138	738.122468837855	331.702322043221	840.454907200561	522.248635595636	573.758285583540	503.651656201903	33.269300630216	387.586973994377	586.437410138509	231.285724931938	395.729738990693	682.669826468918	487.706022775830	373.934158119521	809.488392881115	653.854813700395	581.674369862872	702.506377373640	674.699481634873	639.348636931184	700.285302197025	609.086214129824	350.142657777947	616.527805003112	658.701692686702	296.897592690384	657.741424604909	976.705525647198	579.029590619027	667.241423163209	967.419328292980	319.807228992120	626.701044353132	380.044382142838	365.430069137704	485.823532388931	988.000274780538	450.442159325791	
3	28.342857142857	703.303715177706	39.439152964748	398.250256898432	695.096395153740	42.172798560762	552.440012088110	415.787089712810	47.258267144097	456.032714295954	517.669478159166	1461.347540561806	456.204461271220	575.414365106168	1420.957381436365	621.579132495154	516.024469171363	333.693754184693	328.600179527767	669.141087773398	419.871209982032	627.027115636156	510.819096909729	143.662187320470	584.101431209506	595.180276256262	1436.640825403655	304.797652604151	617.672235508813	144.708190551294	542.920771619725	536.167057951377	1072.206496250796	713.162294331543	745.242599707023	897.355205750759	185.264925397871	583.170917027006	1100.034363393216	188.916183130040	445.614583409457	194.128998719535	519.910878117492	621.395743065981	833.554353228814	740.670835044398	588.070418957427	90.768402848101	414.885291973269	767.894396637242	760.515000883027	592.368970771072	677.227362628512	1375.143847542174	464.223465277947	763.945010014928	414.015555566815	578.796298066094	651.668262479102	279.285591795496	558.321594901924	709.015599270202	737.087010788532	330.554218341335	844.907687032138	527.946349269338	573.168961634605	489.710368533808	34.160930504145	387.591334149584	573.517971125170	231.866832327866	395.389775864284	671.353733075613	487.225484107198	373.360563199629	811.594157190223	658.383998720965	579.733378892002	706.248005663347	678.073176534878	640.752062301256	692.322912984223	608.157184979264	349.348700948997	609.084260629698	659.202182838161	296.987834634162	656.012849841616	977.359972602645	578.697714164260	664.842014506661	967.480521391267	319.458294427843	614.616898961720	380.574528471312	364.883345310017	483.977497825862	988.458578270896	450.694771349938	
4	28.354285714286	689.419209616915	39.073369251408	398.155937442875	728.928422352775	41.682978601391	551.684306363254	402.138580505043	48.955382685262	455.993324849199	517.042467601328	1461.800865022124	455.971527197731	574.322501505407	1421.112656572713	621.531414009790	503.584821586183	335.087845189434	328.624740846554	679.463868228575	416.330417084204	628.349358785972	538.185377464773	130.263714835014	585.742745686743	594.842609517821	1437.090847751539	304.757403085416	644.478490807128	138.817339011820	543.495880666263	529.541358703106	1072.972251102189	711.636008987378	753.180086553613	902.733256773380	185.707702781378	585.173659968709	1100.695328500455	187.460821700068	468.802398602179	176.582187321937	522.326795431581	608.541128440664	832.387768469207	739.567111110955	574.673801117388	90.928358824250	414.653512292580	768.019599841655	763.874874870819	590.537688405217	676.338969188441	1375.153167173327	464.235013180859	773.904473904648	416.583064866211	578.872772162118	669.935932331099	274.979564076886	559.029182172149	703.389696194081	735.980077084774	329.659542583558	848.707740338245	533.165582996329	572.612468232480	475.970928470529	35.044501005903	387.586806792044	560.830357584622	232.450563635569	395.053058881219	660.301500949127	486.720608585443	372.875353445599	813.267998988220	662.462944797059	577.829952932714	709.600364961202	681.167205795686	642.063716818346	684.499210221528	607.172183429472	348.714205078960	601.812591923381	659.634850661734	297.091704273437	654.275806075387	977.920934816256	578.434136252043	662.563908067199	967.415715170352	319.190267458606	602.774948630702	381.080432590073	364.380139278616	482.176363283465	988.820842423637	450.898075975527	
